<svg aria-hidden="true" style="position: absolute; width: 0; height: 0; overflow: hidden;" version="1.1" xmlns="http://www.w3.org/2000/svg" xmlns:xlink="http://www.w3.org/1999/xlink">
    <defs>
        <symbol id="icon-heart" viewBox="0 0 32 32">
            <path d="M23.6 2c-3.363 0-6.258 2.736-7.599 5.594-1.342-2.858-4.237-5.594-7.601-5.594-4.637 0-8.4 3.764-8.4 8.401 0 9.433 9.516 11.906 16.001 21.232 6.13-9.268 15.999-12.1 15.999-21.232 0-4.637-3.763-8.401-8.4-8.401z"></path>
        </symbol>
        <symbol id="icon-map" viewBox="0 0 32 32">
            <path d="M31.634 0.226c0.115 0.094 0.207 0.212 0.27 0.346s0.096 0.28 0.096 0.428v28c-0 0.231-0.080 0.455-0.227 0.634s-0.351 0.301-0.577 0.346l-10 2c-0.129 0.026-0.263 0.026-0.392 0l-9.804-1.96-9.804 1.96c-0.145 0.029-0.295 0.025-0.438-0.010s-0.277-0.103-0.392-0.197c-0.114-0.094-0.207-0.212-0.27-0.345s-0.096-0.28-0.096-0.428v-28c0-0.231 0.080-0.455 0.227-0.634s0.351-0.301 0.577-0.346l10-2c0.129-0.026 0.263-0.026 0.392 0l9.804 1.96 9.804-1.96c0.145-0.029 0.295-0.026 0.438 0.010s0.277 0.103 0.392 0.196zM20 3.82l-8-1.6v25.96l8 1.6zM22 29.78l8-1.6v-25.96l-8 1.6zM10 28.18v-25.96l-8 1.6v25.96z"></path>
        </symbol>
        <symbol id="icon-automatic" viewBox="0 0 32 32">
            <path d="M12 7c0-0.796 0.316-1.559 0.879-2.121s1.326-0.879 2.121-0.879h2c0.796 0 1.559 0.316 2.121 0.879s0.879 1.326 0.879 2.121v2c0 0.796-0.316 1.559-0.879 2.121s-1.326 0.879-2.121 0.879v2h11c0.265 0 0.52 0.105 0.707 0.293s0.293 0.442 0.293 0.707v2c0 0.265-0.105 0.52-0.293 0.707s-0.442 0.293-0.707 0.293-0.52-0.105-0.707-0.293c-0.188-0.188-0.293-0.442-0.293-0.707v-1h-10v1c0 0.265-0.105 0.52-0.293 0.707s-0.442 0.293-0.707 0.293-0.52-0.105-0.707-0.293c-0.188-0.188-0.293-0.442-0.293-0.707v-1h-10v1c0 0.265-0.105 0.52-0.293 0.707s-0.442 0.293-0.707 0.293-0.52-0.105-0.707-0.293c-0.188-0.188-0.293-0.442-0.293-0.707v-2c0-0.265 0.105-0.52 0.293-0.707s0.442-0.293 0.707-0.293h11v-2c-0.796 0-1.559-0.316-2.121-0.879s-0.879-1.326-0.879-2.121zM17 10c0.265 0 0.52-0.105 0.707-0.293s0.293-0.442 0.293-0.707v-2c0-0.265-0.105-0.52-0.293-0.707s-0.442-0.293-0.707-0.293h-2c-0.265 0-0.52 0.105-0.707 0.293s-0.293 0.442-0.293 0.707v2c0 0.265 0.105 0.52 0.293 0.707s0.442 0.293 0.707 0.293zM0 23c0-0.796 0.316-1.559 0.879-2.121s1.326-0.879 2.121-0.879h2c0.796 0 1.559 0.316 2.121 0.879s0.879 1.326 0.879 2.121v2c0 0.796-0.316 1.559-0.879 2.121s-1.326 0.879-2.121 0.879h-2c-0.796 0-1.559-0.316-2.121-0.879s-0.879-1.326-0.879-2.121zM3 22c-0.265 0-0.52 0.105-0.707 0.293s-0.293 0.442-0.293 0.707v2c0 0.265 0.105 0.52 0.293 0.707s0.442 0.293 0.707 0.293h2c0.265 0 0.52-0.105 0.707-0.293s0.293-0.442 0.293-0.707v-2c0-0.265-0.105-0.52-0.293-0.707s-0.442-0.293-0.707-0.293zM12 23c0-0.796 0.316-1.559 0.879-2.121s1.326-0.879 2.121-0.879h2c0.796 0 1.559 0.316 2.121 0.879s0.879 1.326 0.879 2.121v2c0 0.796-0.316 1.559-0.879 2.121s-1.326 0.879-2.121 0.879h-2c-0.796 0-1.559-0.316-2.121-0.879s-0.879-1.326-0.879-2.121zM15 22c-0.265 0-0.52 0.105-0.707 0.293s-0.293 0.442-0.293 0.707v2c0 0.265 0.105 0.52 0.293 0.707s0.442 0.293 0.707 0.293h2c0.265 0 0.52-0.105 0.707-0.293s0.293-0.442 0.293-0.707v-2c0-0.265-0.105-0.52-0.293-0.707s-0.442-0.293-0.707-0.293zM24 23c0-0.796 0.316-1.559 0.879-2.121s1.326-0.879 2.121-0.879h2c0.796 0 1.559 0.316 2.121 0.879s0.879 1.326 0.879 2.121v2c0 0.796-0.316 1.559-0.879 2.121s-1.326 0.879-2.121 0.879h-2c-0.796 0-1.559-0.316-2.121-0.879s-0.879-1.326-0.879-2.121zM27 22c-0.265 0-0.52 0.105-0.707 0.293s-0.293 0.442-0.293 0.707v2c0 0.265 0.105 0.52 0.293 0.707s0.442 0.293 0.707 0.293h2c0.265 0 0.52-0.105 0.707-0.293s0.293-0.442 0.293-0.707v-2c0-0.265-0.105-0.52-0.293-0.707s-0.442-0.293-0.707-0.293z"></path>
        </symbol>
        <symbol id="icon-petrol" viewBox="0 0 32 32">
            <path d="M6 5c0-0.265 0.105-0.52 0.293-0.707s0.442-0.293 0.707-0.293h10c0.265 0 0.52 0.105 0.707 0.293s0.293 0.442 0.293 0.707v10c0 0.265-0.105 0.52-0.293 0.707s-0.442 0.293-0.707 0.293h-10c-0.265 0-0.52-0.105-0.707-0.293s-0.293-0.442-0.293-0.707z"></path>
            <path d="M2 4c0-1.061 0.421-2.078 1.172-2.828s1.768-1.172 2.828-1.172h12c1.061 0 2.078 0.421 2.828 1.172s1.172 1.768 1.172 2.828v16c1.061 0 2.078 0.421 2.828 1.172s1.172 1.768 1.172 2.828v1c0 0.265 0.105 0.52 0.293 0.707s0.442 0.293 0.707 0.293 0.52-0.105 0.707-0.293c0.188-0.188 0.293-0.442 0.293-0.707v-9h-1c-0.265 0-0.52-0.105-0.707-0.293s-0.293-0.442-0.293-0.707v-6.25c0-0.265 0.105-0.52 0.293-0.707s0.442-0.293 0.707-0.293h2.99c-0.022-0.952-0.106-1.788-0.402-2.444-0.158-0.381-0.435-0.702-0.788-0.916-0.368-0.22-0.928-0.39-1.8-0.39-0.265 0-0.52-0.105-0.707-0.293s-0.293-0.442-0.293-0.707 0.105-0.52 0.293-0.707c0.188-0.188 0.442-0.293 0.707-0.293 1.128-0.003 2.069 0.221 2.824 0.672 0.766 0.456 1.268 1.102 1.588 1.814 0.59 1.31 0.588 2.93 0.588 4.162v6.35c0 0.132-0.025 0.262-0.076 0.383s-0.124 0.232-0.217 0.325c-0.093 0.093-0.203 0.167-0.325 0.217s-0.252 0.076-0.383 0.076h-1v9c0 0.796-0.316 1.559-0.879 2.121s-1.326 0.879-2.121 0.879-1.559-0.316-2.121-0.879c-0.563-0.563-0.879-1.326-0.879-2.121v-1c0-0.53-0.211-1.039-0.586-1.414s-0.884-0.586-1.414-0.586v8h1c0.265 0 0.52 0.105 0.707 0.293s0.293 0.442 0.293 0.707-0.105 0.52-0.293 0.707c-0.188 0.188-0.442 0.293-0.707 0.293h-22c-0.265 0-0.52-0.105-0.707-0.293s-0.293-0.442-0.293-0.707 0.105-0.52 0.293-0.707c0.188-0.188 0.442-0.293 0.707-0.293h1zM20 4c0-0.53-0.211-1.039-0.586-1.414s-0.884-0.586-1.414-0.586h-12c-0.53 0-1.039 0.211-1.414 0.586s-0.586 0.884-0.586 1.414v26h16z"></path>
        </symbol>
        <symbol id="icon-kitchen" viewBox="0 0 32 32">
            <path d="M1 11.999c-0.15 0-0.297 0.034-0.432 0.098s-0.254 0.159-0.347 0.276c-0.094 0.117-0.16 0.253-0.194 0.399s-0.035 0.297-0.003 0.443l3.304 14.868c0.247 1.111 0.864 2.104 1.752 2.816s1.991 1.1 3.128 1.1h11.584c1.137-0 2.241-0.388 3.128-1.1s1.505-1.705 1.752-2.816l0.262-1.18c1.53 0.286 3.111-0.033 4.41-0.891s2.213-2.187 2.551-3.706c0.337-1.519 0.071-3.11-0.742-4.437s-2.111-2.285-3.618-2.674l0.442-1.98c0.032-0.146 0.031-0.298-0.003-0.443s-0.1-0.282-0.194-0.399c-0.094-0.117-0.212-0.211-0.347-0.276s-0.283-0.098-0.432-0.098zM26 24.999c-0.212 0-0.423-0.017-0.632-0.050l1.734-7.796c0.925 0.268 1.722 0.86 2.246 1.669s0.738 1.778 0.604 2.732c-0.134 0.954-0.607 1.827-1.333 2.46s-1.656 0.983-2.619 0.985zM5.28 27.649l-3.034-13.65h23.508l-3.034 13.65c-0.148 0.666-0.519 1.262-1.051 1.69s-1.194 0.66-1.877 0.66h-11.584c-0.683-0-1.345-0.233-1.877-0.66s-0.903-1.023-1.051-1.69z"></path>
            <path d="M8.8 1.599l-0.006 0.008-0.028 0.038c-0.145 0.2-0.282 0.407-0.408 0.62-0.107 0.171-0.202 0.349-0.282 0.534-0.052 0.12-0.068 0.184-0.074 0.206v0.008c0.023 0.177 0.085 0.346 0.182 0.496 0.15 0.266 0.356 0.544 0.616 0.89l0.020 0.024c0.236 0.316 0.52 0.694 0.74 1.086 0.224 0.4 0.44 0.91 0.44 1.49 0 0.376-0.13 0.736-0.238 0.988-0.116 0.268-0.251 0.528-0.404 0.776-0.157 0.262-0.326 0.517-0.506 0.764l-0.036 0.050-0.010 0.016-0.004 0.004c-0.159 0.212-0.396 0.353-0.658 0.391s-0.529-0.030-0.742-0.189-0.353-0.396-0.391-0.658c-0.038-0.263 0.030-0.529 0.189-0.742l0.034-0.046c0.146-0.2 0.282-0.407 0.408-0.62 0.107-0.171 0.202-0.349 0.282-0.534 0.052-0.12 0.068-0.184 0.074-0.206-0.021-0.179-0.083-0.352-0.18-0.504-0.186-0.31-0.392-0.608-0.618-0.89l-0.020-0.024c-0.27-0.345-0.517-0.708-0.74-1.086-0.272-0.451-0.424-0.964-0.44-1.49 0-0.376 0.13-0.736 0.238-0.988 0.118-0.276 0.268-0.548 0.404-0.776 0.159-0.261 0.328-0.516 0.506-0.764l0.050-0.070c0.159-0.212 0.396-0.353 0.658-0.391s0.529 0.030 0.742 0.189c0.212 0.159 0.353 0.396 0.391 0.658s-0.030 0.529-0.189 0.742zM14.8 1.599l-0.006 0.008-0.028 0.038c-0.145 0.2-0.282 0.407-0.408 0.62-0.107 0.171-0.202 0.349-0.282 0.534-0.052 0.12-0.068 0.184-0.074 0.206v0.008c0.023 0.177 0.085 0.346 0.182 0.496 0.15 0.266 0.356 0.544 0.616 0.89l0.020 0.024c0.236 0.316 0.52 0.694 0.74 1.086 0.224 0.4 0.44 0.91 0.44 1.49 0 0.376-0.13 0.736-0.238 0.988-0.116 0.268-0.251 0.528-0.404 0.776-0.157 0.262-0.326 0.517-0.506 0.764l-0.036 0.050-0.010 0.016-0.004 0.004c-0.159 0.212-0.396 0.353-0.658 0.391s-0.529-0.030-0.742-0.189-0.353-0.396-0.391-0.658c-0.038-0.263 0.030-0.529 0.189-0.742l0.034-0.046c0.146-0.2 0.282-0.407 0.408-0.62 0.107-0.171 0.202-0.349 0.282-0.534 0.052-0.12 0.068-0.184 0.074-0.206-0.021-0.179-0.083-0.352-0.18-0.504-0.186-0.31-0.392-0.608-0.618-0.89l-0.020-0.024c-0.27-0.345-0.517-0.708-0.74-1.086-0.272-0.451-0.424-0.964-0.44-1.49 0-0.376 0.13-0.736 0.238-0.988 0.118-0.276 0.268-0.548 0.404-0.776 0.159-0.261 0.328-0.516 0.506-0.764l0.050-0.070c0.159-0.212 0.396-0.353 0.658-0.391s0.529 0.030 0.742 0.189c0.212 0.159 0.353 0.396 0.391 0.658s-0.030 0.529-0.189 0.742zM20.8 1.599l-0.006 0.008-0.028 0.038c-0.145 0.2-0.282 0.407-0.408 0.62-0.107 0.171-0.202 0.349-0.282 0.534-0.052 0.12-0.068 0.184-0.074 0.206v0.008c0.023 0.177 0.085 0.346 0.182 0.496 0.15 0.266 0.356 0.544 0.616 0.89l0.020 0.024c0.236 0.316 0.52 0.694 0.74 1.086 0.224 0.4 0.44 0.91 0.44 1.49 0 0.376-0.13 0.736-0.238 0.988-0.116 0.268-0.251 0.528-0.404 0.776-0.156 0.262-0.324 0.517-0.504 0.764l-0.038 0.050-0.010 0.016-0.004 0.004c-0.159 0.212-0.396 0.353-0.658 0.391s-0.529-0.030-0.742-0.189-0.353-0.396-0.391-0.658c-0.038-0.263 0.030-0.529 0.189-0.742l0.006-0.008 0.028-0.038c0.146-0.2 0.282-0.407 0.408-0.62 0.107-0.171 0.202-0.349 0.282-0.534 0.052-0.12 0.068-0.184 0.074-0.206-0.021-0.179-0.083-0.352-0.18-0.504-0.186-0.31-0.392-0.608-0.618-0.89l-0.020-0.024c-0.27-0.345-0.517-0.708-0.74-1.086-0.272-0.45-0.424-0.964-0.44-1.49 0-0.376 0.13-0.736 0.238-0.988 0.118-0.276 0.268-0.548 0.404-0.776 0.159-0.261 0.328-0.516 0.506-0.764l0.050-0.070c0.159-0.212 0.396-0.353 0.658-0.391s0.529 0.030 0.742 0.189 0.353 0.396 0.391 0.658c0.038 0.262-0.030 0.529-0.189 0.742z"></path>
        </symbol>
        <symbol id="icon-ac" viewBox="0 0 36 32">
            <path d="M27.778 2.222c-1.473 0-2.887 0.585-3.928 1.627s-1.627 2.455-1.627 3.928c0 0.295-0.117 0.577-0.326 0.786s-0.491 0.325-0.786 0.325-0.577-0.117-0.786-0.325c-0.209-0.208-0.326-0.491-0.326-0.786 0-1.538 0.456-3.042 1.311-4.321s2.069-2.276 3.491-2.865c1.421-0.589 2.985-0.743 4.494-0.443s2.895 1.041 3.982 2.129c1.088 1.088 1.828 2.474 2.129 3.982s0.146 3.073-0.443 4.494c-0.589 1.421-1.586 2.636-2.865 3.491s-2.783 1.311-4.321 1.311h-26.667c-0.295 0-0.577-0.117-0.786-0.325s-0.326-0.491-0.326-0.786 0.117-0.577 0.326-0.786c0.208-0.208 0.491-0.325 0.786-0.325h26.667c1.473 0 2.887-0.585 3.928-1.627s1.627-2.455 1.627-3.928-0.585-2.887-1.627-3.928c-1.042-1.042-2.455-1.627-3.928-1.627zM12.222 4.444c-0.589 0-1.155 0.234-1.571 0.651s-0.651 0.982-0.651 1.571c0 0.295-0.117 0.577-0.325 0.786s-0.491 0.325-0.786 0.325-0.577-0.117-0.786-0.325c-0.208-0.208-0.325-0.491-0.325-0.786 0-0.879 0.261-1.738 0.749-2.469s1.183-1.301 1.995-1.637c0.812-0.336 1.706-0.424 2.568-0.253s1.654 0.595 2.276 1.216c0.621 0.622 1.045 1.413 1.216 2.276s0.083 1.756-0.253 2.568-0.906 1.506-1.637 1.995c-0.731 0.488-1.59 0.749-2.469 0.749h-11.111c-0.295 0-0.577-0.117-0.786-0.325s-0.326-0.491-0.326-0.786 0.117-0.577 0.326-0.786c0.208-0.208 0.491-0.325 0.786-0.325h11.111c0.589 0 1.155-0.234 1.571-0.651s0.651-0.982 0.651-1.571-0.234-1.155-0.651-1.571c-0.417-0.417-0.982-0.651-1.571-0.651zM0 18.889c0-0.295 0.117-0.577 0.326-0.786s0.491-0.326 0.786-0.326h22.316c1.319 0 2.607 0.391 3.704 1.124s1.951 1.774 2.455 2.992c0.505 1.218 0.637 2.559 0.379 3.852s-0.892 2.481-1.824 3.413c-0.932 0.932-2.12 1.567-3.413 1.824s-2.634 0.125-3.852-0.379c-1.218-0.505-2.259-1.359-2.992-2.455s-1.124-2.385-1.124-3.704c0-0.295 0.117-0.577 0.326-0.786s0.491-0.326 0.786-0.326 0.577 0.117 0.786 0.326c0.209 0.208 0.326 0.491 0.326 0.786 0 0.879 0.261 1.738 0.749 2.469s1.183 1.301 1.995 1.637 1.706 0.424 2.568 0.253c0.862-0.172 1.654-0.595 2.276-1.216s1.045-1.413 1.216-2.276c0.171-0.862 0.083-1.756-0.253-2.568s-0.906-1.506-1.637-1.995-1.59-0.749-2.469-0.749h-22.316c-0.295 0-0.577-0.117-0.786-0.326s-0.326-0.491-0.326-0.786z"></path>
        </symbol>
        <symbol id="icon-tv" viewBox="0 0 41 32">
            <path d="M0 5.12c0 0 0-5.12 5.12-5.12h30.72c0 0 5.12 0 5.12 5.12v15.36c0 0 0 5.12-5.12 5.12h-10.24c0 1.707 0.213 2.987 0.64 3.84h1.92c0.339 0 0.665 0.135 0.905 0.375s0.375 0.566 0.375 0.905-0.135 0.665-0.375 0.905-0.566 0.375-0.905 0.375h-15.36c-0.339 0-0.665-0.135-0.905-0.375s-0.375-0.566-0.375-0.905 0.135-0.665 0.375-0.905 0.566-0.375 0.905-0.375h1.92c0.427-0.853 0.64-2.133 0.64-3.84h-10.24c0 0-5.12 0-5.12-5.12zM3.579 2.931c-0.281 0.196-0.505 0.463-0.65 0.773-0.216 0.452-0.341 0.941-0.369 1.441v15.334c0 0.832 0.2 1.285 0.371 1.541 0.179 0.266 0.437 0.483 0.773 0.65 0.432 0.207 0.899 0.331 1.377 0.366l0.064 0.003h30.694c0.832 0 1.285-0.2 1.541-0.371 0.281-0.196 0.505-0.463 0.65-0.773 0.207-0.432 0.331-0.899 0.366-1.377l0.003-0.064v-15.334c0-0.832-0.2-1.285-0.371-1.541-0.196-0.281-0.463-0.505-0.773-0.65-0.452-0.216-0.941-0.341-1.441-0.369h-30.694c-0.832 0-1.285 0.2-1.541 0.371z"></path>
        </symbol>
        <symbol id="icon-bathroom" viewBox="0 0 37 32">
            <path d="M8.296 30.222c0 0.352-0.104 0.695-0.3 0.988s-0.473 0.52-0.798 0.655-0.682 0.17-1.027 0.101c-0.345-0.069-0.662-0.238-0.91-0.487s-0.418-0.565-0.487-0.91c-0.069-0.345-0.033-0.702 0.101-1.027s0.362-0.603 0.655-0.798c0.292-0.195 0.636-0.3 0.988-0.3 0.471 0 0.924 0.187 1.257 0.521s0.521 0.786 0.521 1.257zM11.259 23.704c-0.352 0-0.695 0.104-0.988 0.3s-0.52 0.473-0.655 0.798c-0.135 0.325-0.17 0.682-0.101 1.027s0.238 0.662 0.487 0.91c0.249 0.249 0.565 0.418 0.91 0.487s0.702 0.033 1.027-0.101 0.603-0.362 0.798-0.655c0.195-0.292 0.3-0.636 0.3-0.988 0-0.471-0.187-0.924-0.521-1.257s-0.786-0.521-1.257-0.521zM1.778 23.704c-0.352 0-0.695 0.104-0.988 0.3s-0.52 0.473-0.655 0.798c-0.135 0.325-0.17 0.682-0.101 1.027s0.238 0.662 0.487 0.91c0.249 0.249 0.565 0.418 0.91 0.487s0.702 0.033 1.027-0.101 0.603-0.362 0.798-0.655c0.195-0.292 0.3-0.636 0.3-0.988 0-0.471-0.187-0.924-0.521-1.257s-0.786-0.521-1.257-0.521zM6.519 18.963c-0.352 0-0.695 0.104-0.988 0.3s-0.52 0.473-0.655 0.798c-0.135 0.325-0.17 0.682-0.101 1.027s0.238 0.662 0.487 0.91c0.249 0.249 0.565 0.418 0.91 0.487s0.702 0.033 1.027-0.101 0.603-0.362 0.798-0.655c0.195-0.292 0.3-0.636 0.3-0.988 0-0.471-0.187-0.924-0.521-1.257s-0.786-0.521-1.257-0.521zM36.741 1.185c0 0.314-0.125 0.616-0.347 0.838s-0.524 0.347-0.838 0.347h-4.25l-4.126 4.127-3.209 18.784c-0.072 0.429-0.261 0.83-0.546 1.159s-0.655 0.573-1.070 0.705c-0.414 0.133-0.857 0.148-1.28 0.046s-0.809-0.32-1.117-0.627l-14.519-14.519c-0.308-0.308-0.526-0.695-0.628-1.118s-0.087-0.867 0.047-1.282c0.133-0.415 0.378-0.785 0.708-1.070s0.731-0.473 1.161-0.545l18.776-3.21 4.474-4.474c0.11-0.11 0.241-0.197 0.385-0.257s0.298-0.090 0.454-0.090h4.741c0.314 0 0.616 0.125 0.838 0.347s0.347 0.524 0.347 0.838zM24.624 7.376l-17.513 2.994 14.519 14.519z"></path>
        </symbol>
        <symbol id="icon-van" viewBox="0 0 32 32">
            <path d="M12 2h-10v28h10zM30 2h-10v10h10zM30 20v10h-10v-10zM0 2c0-0.53 0.211-1.039 0.586-1.414s0.884-0.586 1.414-0.586h10c0.53 0 1.039 0.211 1.414 0.586s0.586 0.884 0.586 1.414v28c0 0.53-0.211 1.039-0.586 1.414s-0.884 0.586-1.414 0.586h-10c-0.53 0-1.039-0.211-1.414-0.586s-0.586-0.884-0.586-1.414zM18 2c0-0.53 0.211-1.039 0.586-1.414s0.884-0.586 1.414-0.586h10c0.53 0 1.039 0.211 1.414 0.586s0.586 0.884 0.586 1.414v10c0 0.53-0.211 1.039-0.586 1.414s-0.884 0.586-1.414 0.586h-10c-0.53 0-1.039-0.211-1.414-0.586s-0.586-0.884-0.586-1.414zM20 18c-0.53 0-1.039 0.211-1.414 0.586s-0.586 0.884-0.586 1.414v10c0 0.53 0.211 1.039 0.586 1.414s0.884 0.586 1.414 0.586h10c0.53 0 1.039-0.211 1.414-0.586s0.586-0.884 0.586-1.414v-10c0-0.53-0.211-1.039-0.586-1.414s-0.884-0.586-1.414-0.586z"></path>
        </symbol>
        <symbol id="icon-fully-integrated" viewBox="0 0 32 32">
            <path d="M0 3.429c0-0.909 0.361-1.781 1.004-2.424s1.515-1.004 2.424-1.004h6.857c0.909 0 1.781 0.361 2.424 1.004s1.004 1.515 1.004 2.424v6.857c0 0.909-0.361 1.781-1.004 2.424s-1.515 1.004-2.424 1.004h-6.857c-0.909 0-1.781-0.361-2.424-1.004s-1.004-1.515-1.004-2.424zM3.429 2.286c-0.303 0-0.594 0.12-0.808 0.335s-0.335 0.505-0.335 0.808v6.857c0 0.303 0.12 0.594 0.335 0.808s0.505 0.335 0.808 0.335h6.857c0.303 0 0.594-0.12 0.808-0.335s0.335-0.505 0.335-0.808v-6.857c0-0.303-0.12-0.594-0.335-0.808s-0.505-0.335-0.808-0.335zM18.286 3.429c0-0.909 0.361-1.781 1.004-2.424s1.515-1.004 2.424-1.004h6.857c0.909 0 1.781 0.361 2.424 1.004s1.004 1.515 1.004 2.424v6.857c0 0.909-0.361 1.781-1.004 2.424s-1.515 1.004-2.424 1.004h-6.857c-0.909 0-1.781-0.361-2.424-1.004s-1.004-1.515-1.004-2.424zM21.714 2.286c-0.303 0-0.594 0.12-0.808 0.335s-0.335 0.505-0.335 0.808v6.857c0 0.303 0.12 0.594 0.335 0.808s0.505 0.335 0.808 0.335h6.857c0.303 0 0.594-0.12 0.808-0.335s0.335-0.505 0.335-0.808v-6.857c0-0.303-0.12-0.594-0.335-0.808s-0.505-0.335-0.808-0.335zM0 21.714c0-0.909 0.361-1.781 1.004-2.424s1.515-1.004 2.424-1.004h6.857c0.909 0 1.781 0.361 2.424 1.004s1.004 1.515 1.004 2.424v6.857c0 0.909-0.361 1.781-1.004 2.424s-1.515 1.004-2.424 1.004h-6.857c-0.909 0-1.781-0.361-2.424-1.004s-1.004-1.515-1.004-2.424zM3.429 20.571c-0.303 0-0.594 0.12-0.808 0.335s-0.335 0.505-0.335 0.808v6.857c0 0.303 0.12 0.594 0.335 0.808s0.505 0.335 0.808 0.335h6.857c0.303 0 0.594-0.12 0.808-0.335s0.335-0.505 0.335-0.808v-6.857c0-0.303-0.12-0.594-0.335-0.808s-0.505-0.335-0.808-0.335zM18.286 21.714c0-0.909 0.361-1.781 1.004-2.424s1.515-1.004 2.424-1.004h6.857c0.909 0 1.781 0.361 2.424 1.004s1.004 1.515 1.004 2.424v6.857c0 0.909-0.361 1.781-1.004 2.424s-1.515 1.004-2.424 1.004h-6.857c-0.909 0-1.781-0.361-2.424-1.004s-1.004-1.515-1.004-2.424zM21.714 20.571c-0.303 0-0.594 0.12-0.808 0.335s-0.335 0.505-0.335 0.808v6.857c0 0.303 0.12 0.594 0.335 0.808s0.505 0.335 0.808 0.335h6.857c0.303 0 0.594-0.12 0.808-0.335s0.335-0.505 0.335-0.808v-6.857c0-0.303-0.12-0.594-0.335-0.808s-0.505-0.335-0.808-0.335z"></path>
        </symbol>
        <symbol id="icon-alcove" viewBox="0 0 32 32">
            <path d="M6.857 2.286v4.571h-4.571v-4.571zM9.143 29.714v-4.571c0-0.606-0.241-1.188-0.669-1.616s-1.010-0.669-1.616-0.669h-4.571c-0.606 0-1.188 0.241-1.616 0.669s-0.669 1.010-0.669 1.616v4.571c0 0.606 0.241 1.188 0.669 1.616s1.010 0.669 1.616 0.669h4.571c0.606 0 1.188-0.241 1.616-0.669s0.669-1.010 0.669-1.616zM9.143 18.286v-4.571c0-0.606-0.241-1.188-0.669-1.616s-1.010-0.669-1.616-0.669h-4.571c-0.606 0-1.188 0.241-1.616 0.669s-0.669 1.010-0.669 1.616v4.571c0 0.606 0.241 1.188 0.669 1.616s1.010 0.669 1.616 0.669h4.571c0.606 0 1.188-0.241 1.616-0.669s0.669-1.010 0.669-1.616zM9.143 6.857v-4.571c0-0.606-0.241-1.188-0.669-1.616s-1.010-0.669-1.616-0.669h-4.571c-0.606 0-1.188 0.241-1.616 0.669s-0.669 1.010-0.669 1.616v4.571c0 0.606 0.241 1.188 0.669 1.616s1.010 0.669 1.616 0.669h4.571c0.606 0 1.188-0.241 1.616-0.669s0.669-1.010 0.669-1.616zM20.571 29.714v-4.571c0-0.606-0.241-1.188-0.669-1.616s-1.010-0.669-1.616-0.669h-4.571c-0.606 0-1.188 0.241-1.616 0.669s-0.669 1.010-0.669 1.616v4.571c0 0.606 0.241 1.188 0.669 1.616s1.010 0.669 1.616 0.669h4.571c0.606 0 1.188-0.241 1.616-0.669s0.669-1.010 0.669-1.616zM20.571 18.286v-4.571c0-0.606-0.241-1.188-0.669-1.616s-1.010-0.669-1.616-0.669h-4.571c-0.606 0-1.188 0.241-1.616 0.669s-0.669 1.010-0.669 1.616v4.571c0 0.606 0.241 1.188 0.669 1.616s1.010 0.669 1.616 0.669h4.571c0.606 0 1.188-0.241 1.616-0.669s0.669-1.010 0.669-1.616zM20.571 6.857v-4.571c0-0.606-0.241-1.188-0.669-1.616s-1.010-0.669-1.616-0.669h-4.571c-0.606 0-1.188 0.241-1.616 0.669s-0.669 1.010-0.669 1.616v4.571c0 0.606 0.241 1.188 0.669 1.616s1.010 0.669 1.616 0.669h4.571c0.606 0 1.188-0.241 1.616-0.669s0.669-1.010 0.669-1.616zM18.286 2.286v4.571h-4.571v-4.571zM29.714 2.286v4.571h-4.571v-4.571zM6.857 13.714v4.571h-4.571v-4.571zM18.286 13.714v4.571h-4.571v-4.571zM29.714 13.714h-4.571v4.571h4.571zM6.857 25.143v4.571h-4.571v-4.571zM18.286 25.143v4.571h-4.571v-4.571zM29.714 25.143v4.571h-4.571v-4.571zM25.143 0c-0.606 0-1.188 0.241-1.616 0.669s-0.669 1.010-0.669 1.616v4.571c0 0.606 0.241 1.188 0.669 1.616s1.010 0.669 1.616 0.669h4.571c0.606 0 1.188-0.241 1.616-0.669s0.669-1.010 0.669-1.616v-4.571c0-0.606-0.241-1.188-0.669-1.616s-1.010-0.669-1.616-0.669zM22.857 13.714c0-0.606 0.241-1.188 0.669-1.616s1.010-0.669 1.616-0.669h4.571c0.606 0 1.188 0.241 1.616 0.669s0.669 1.010 0.669 1.616v4.571c0 0.606-0.241 1.188-0.669 1.616s-1.010 0.669-1.616 0.669h-4.571c-0.606 0-1.188-0.241-1.616-0.669s-0.669-1.010-0.669-1.616zM25.143 22.857c-0.606 0-1.188 0.241-1.616 0.669s-0.669 1.010-0.669 1.616v4.571c0 0.606 0.241 1.188 0.669 1.616s1.010 0.669 1.616 0.669h4.571c0.606 0 1.188-0.241 1.616-0.669s0.669-1.010 0.669-1.616v-4.571c0-0.606-0.241-1.188-0.669-1.616s-1.010-0.669-1.616-0.669z"></path>
        </symbol>
        <symbol id="icon-radio" viewBox="0 0 32 32">
            <path d="M14 5c0-0.265 0.105-0.52 0.293-0.707s0.442-0.293 0.707-0.293h14c0.265 0 0.52 0.105 0.707 0.293s0.293 0.442 0.293 0.707v2c0 0.265-0.105 0.52-0.293 0.707s-0.442 0.293-0.707 0.293h-14c-0.265 0-0.52-0.105-0.707-0.293s-0.293-0.442-0.293-0.707zM0 24c0-1.591 0.632-3.117 1.757-4.243s2.651-1.757 4.243-1.757 3.117 0.632 4.243 1.757c1.125 1.125 1.757 2.651 1.757 4.243s-0.632 3.117-1.757 4.243c-1.125 1.125-2.651 1.757-4.243 1.757s-3.117-0.632-4.243-1.757c-1.125-1.125-1.757-2.651-1.757-4.243zM14 21c0-0.265 0.105-0.52 0.293-0.707s0.442-0.293 0.707-0.293h14c0.265 0 0.52 0.105 0.707 0.293s0.293 0.442 0.293 0.707v2c0 0.265-0.105 0.52-0.293 0.707s-0.442 0.293-0.707 0.293h-14c-0.265 0-0.52-0.105-0.707-0.293s-0.293-0.442-0.293-0.707zM14 11c0-0.265 0.105-0.52 0.293-0.707s0.442-0.293 0.707-0.293h10c0.265 0 0.52 0.105 0.707 0.293s0.293 0.442 0.293 0.707-0.105 0.52-0.293 0.707c-0.188 0.188-0.442 0.293-0.707 0.293h-10c-0.265 0-0.52-0.105-0.707-0.293s-0.293-0.442-0.293-0.707zM14 27c0-0.265 0.105-0.52 0.293-0.707s0.442-0.293 0.707-0.293h10c0.265 0 0.52 0.105 0.707 0.293s0.293 0.442 0.293 0.707-0.105 0.52-0.293 0.707c-0.188 0.188-0.442 0.293-0.707 0.293h-10c-0.265 0-0.52-0.105-0.707-0.293s-0.293-0.442-0.293-0.707zM6 2c-0.788 0-1.568 0.155-2.296 0.457s-1.389 0.743-1.946 1.301c-0.557 0.557-0.999 1.219-1.301 1.946s-0.457 1.508-0.457 2.296 0.155 1.568 0.457 2.296c0.301 0.728 0.743 1.389 1.301 1.947s1.219 0.999 1.946 1.3c0.728 0.302 1.508 0.457 2.296 0.457 1.591 0 3.117-0.632 4.243-1.757s1.757-2.651 1.757-4.243-0.632-3.117-1.757-4.243c-1.125-1.125-2.651-1.757-4.243-1.757zM6 11c-0.796 0-1.559-0.316-2.121-0.879s-0.879-1.326-0.879-2.121 0.316-1.559 0.879-2.121c0.563-0.563 1.326-0.879 2.121-0.879s1.559 0.316 2.121 0.879c0.563 0.563 0.879 1.326 0.879 2.121s-0.316 1.559-0.879 2.121c-0.563 0.563-1.326 0.879-2.121 0.879z"></path>
        </symbol>
        <symbol id="icon-refrigerator" viewBox="0 0 27 32">
            <path d="M13.046 0h-0.166c-2.723 0-4.88 0-6.567 0.227-1.736 0.234-3.142 0.726-4.252 1.834-1.108 1.109-1.6 2.516-1.834 4.252-0.227 1.689-0.227 3.844-0.227 6.567v4.61c0 2.723 0 4.88 0.227 6.567 0.234 1.736 0.726 3.142 1.834 4.252 0.681 0.68 1.473 1.127 2.384 1.427v1.004c0 0.613 0.498 1.111 1.111 1.111h1.481c0.295 0 0.577-0.117 0.786-0.326s0.325-0.491 0.325-0.786v-0.439c1.344 0.068 2.911 0.068 4.732 0.068h0.166c1.822 0 3.388 0 4.732-0.068v0.439c0 0.613 0.498 1.111 1.111 1.111h1.481c0.295 0 0.577-0.117 0.786-0.326s0.325-0.491 0.325-0.786v-1.004c0.911-0.299 1.704-0.747 2.384-1.427 1.108-1.11 1.6-2.516 1.834-4.252 0.227-1.689 0.227-3.844 0.227-6.567v-4.609c0-2.723 0-4.88-0.227-6.567-0.234-1.736-0.726-3.142-1.834-4.252-1.11-1.108-2.516-1.6-4.252-1.834-1.689-0.227-3.844-0.227-6.567-0.227zM3.633 3.633c0.627-0.627 1.486-1.003 2.976-1.203 1.523-0.204 3.529-0.207 6.354-0.207s4.833 0.003 6.356 0.207c1.489 0.2 2.348 0.576 2.975 1.203s1.003 1.486 1.203 2.976c0.204 1.523 0.207 3.529 0.207 6.354v1.111h-21.481v-1.111c0-2.825 0.003-4.831 0.207-6.356 0.2-1.489 0.576-2.348 1.203-2.975zM2.222 16.296h21.481v1.111c0 2.825-0.003 4.833-0.207 6.356-0.2 1.489-0.576 2.348-1.203 2.975s-1.486 1.003-2.976 1.203c-1.523 0.204-3.529 0.207-6.354 0.207s-4.831-0.003-6.356-0.207c-1.489-0.2-2.348-0.576-2.975-1.203s-1.003-1.486-1.203-2.976c-0.204-1.521-0.207-3.529-0.207-6.354z"></path>
        </symbol>
        <symbol id="icon-microwave" viewBox="0 0 36 32">
            <path stroke-linejoin="round" stroke-linecap="round" stroke-miterlimit="4" stroke-width="1.25" d="M31.25 1.25h-26.667c-1.841 0-3.333 1.492-3.333 3.333v18.333c0 1.841 1.492 3.333 3.333 3.333h26.667c1.841 0 3.333-1.492 3.333-3.333v-18.333c0-1.841-1.492-3.333-3.333-3.333z"></path>
            <path stroke-linejoin="round" stroke-linecap="round" stroke-miterlimit="4" stroke-width="1.25" d="M19.583 7.917h-10c-0.92 0-1.667 0.746-1.667 1.667v8.333c0 0.92 0.746 1.667 1.667 1.667h10c0.92 0 1.667-0.746 1.667-1.667v-8.333c0-0.92-0.746-1.667-1.667-1.667z"></path>
            <path stroke-linejoin="round" stroke-linecap="round" stroke-miterlimit="4" stroke-width="1.25" d="M27.917 7.917v11.667M7.917 26.25v3.333M27.917 26.25v3.333"></path>
        </symbol>
        <symbol id="icon-gas" viewBox="0 0 32 32">
            <path stroke-linejoin="round" stroke-linecap="round" stroke-miterlimit="4" stroke-width="1.5" d="M6.877 25.123h5.614M23.719 25.136v-0.013M1.263 6.877c0-4.646 0.968-5.614 5.614-5.614h16.842c4.646 0 5.614 0.968 5.614 5.614v16.842c0 4.646-0.968 5.614-5.614 5.614h-16.842c-4.646 0-5.614-0.968-5.614-5.614z"></path>
            <path stroke-linejoin="round" stroke-linecap="round" stroke-miterlimit="4" stroke-width="1.5" d="M15.298 18.105c3.101 0 5.614-2.514 5.614-5.614s-2.514-5.614-5.614-5.614c-3.1 0-5.614 2.514-5.614 5.614s2.514 5.614 5.614 5.614z"></path>
            <path stroke-linejoin="round" stroke-linecap="round" stroke-miterlimit="4" stroke-width="1.5" d="M20.211 12.491h2.105M15.298 17.403v2.105M10.386 12.491h-2.105M15.298 7.579v-2.105"></path>
        </symbol>
        <symbol id="icon-water" viewBox="0 0 32 32">
            <path stroke-linejoin="miter" stroke-linecap="butt" stroke-miterlimit="10" stroke-width="1.25" d="M25 20c0 5.523-3.477 9-9 9s-9-3.477-9-9c0-5.927 6.452-13.928 8.431-16.243 0.071-0.082 0.158-0.148 0.256-0.193s0.205-0.069 0.314-0.069 0.215 0.023 0.314 0.069c0.098 0.045 0.186 0.111 0.256 0.193 1.978 2.314 8.43 10.316 8.43 16.243z"></path>
            <path stroke-linejoin="round" stroke-linecap="round" stroke-miterlimit="4" stroke-width="1.25" d="M21.5 20.5c0 1.193-0.474 2.338-1.318 3.182s-1.988 1.318-3.182 1.318"></path>
        </symbol>
        <symbol id="icon-star" viewBox="0 0 34 32">
            <path d="M15.195 0.61c0.429-0.813 1.593-0.813 2.022 0l4.316 8.18c0.165 0.313 0.467 0.532 0.816 0.593l9.114 1.577c0.905 0.157 1.265 1.264 0.625 1.923l-6.446 6.632c-0.247 0.254-0.362 0.608-0.312 0.959l1.317 9.155c0.131 0.91-0.811 1.594-1.635 1.188l-8.3-4.081c-0.318-0.156-0.691-0.156-1.008 0l-8.3 4.081c-0.825 0.405-1.766-0.279-1.636-1.188l1.317-9.155c0.051-0.351-0.065-0.705-0.312-0.959l-6.446-6.632c-0.64-0.659-0.281-1.766 0.625-1.923l9.114-1.577c0.349-0.060 0.65-0.279 0.816-0.593z"></path>
        </symbol>
    </defs>
</svg>
